<svg xmlns="http://www.w3.org/2000/svg" width="510" height="588" fill="none"><path stroke="url(#a)" stroke-linecap="round" stroke-linejoin="round" stroke-width="10" d="M505 149.36 255 5 5 149.36m500 0L255 289.855M505 149.36v54.536l-52.204 30.369M255 582.441l250-148.225v-58.157M255 582.441 5 434.216v-58.157m250 206.382v-57.087M5 149.36l250 140.495M5 149.36v54.536l52.204 30.369M255 289.855v59.471m0 0L57.204 234.265M255 349.326l197.796-115.061M255 408.139l250-148.637M255 408.139 5 259.502m250 148.637v58.402m250-207.039v56.675l-52.204 30.591M505 259.502l-52.204-25.237M5 259.502v56.675l52.204 30.591M5 259.502l52.204-25.237M255 466.541 57.204 346.768M255 466.541l197.796-119.773M255 525.354l250-149.295M255 525.354 5 376.059m500 0-52.204-29.291M5 376.059l52.204-29.291"/><defs><linearGradient id="a" x1="169.355" x2="342.794" y1="240.525" y2="247.619" gradientUnits="userSpaceOnUse"><stop stop-color="#82DEF5"/><stop offset="1" stop-color="#7584D6"/></linearGradient></defs></svg>