<svg xmlns="http://www.w3.org/2000/svg" width="16" height="16" fill="none"><path stroke="#fff" stroke-linecap="round" stroke-linejoin="round" stroke-width="1.2" d="M12 1.334v1.333M4 1.334v1.333m3.997 6h.006m-.006 2.667h.006m2.658-2.667h.006m-5.334 0h.006m-.006 2.667h.006m-3.006-6h11.334M2 5.334h12M1.667 8.163c0-2.905 0-4.357.834-5.26.835-.902 2.179-.902 4.866-.902h1.266c2.687 0 4.03 0 4.866.902.834.902.834 2.355.834 5.26v.342c0 2.905 0 4.357-.834 5.26-.835.902-2.179.902-4.866.902H7.367c-2.687 0-4.03 0-4.866-.902-.834-.902-.834-2.355-.834-5.26v-.342Z"/></svg>