<svg xmlns="http://www.w3.org/2000/svg" width="428" height="492" fill="none"><path stroke="url(#a)" stroke-linecap="round" stroke-linejoin="round" stroke-width="10" d="M422.333 125.471 214 5.166 5.667 125.471m416.666 0v240.611l-85.816 49.555m85.816-290.166-85.816 49.556M5.667 125.471v240.611l85.816 49.555M5.666 125.471l85.817 49.556M214 105.346 91.483 175.027M214 105.346l122.517 69.681M214 105.346v186.942M91.483 175.027v240.61m245.034-240.61v240.61m0 0-40.243-24.063M91.483 415.637l41.137-24.063M214 486.387l82.274-47.511v-47.302M214 486.387v-94.813m0 94.813-81.38-46.994v-47.819m81.38 0 82.274-51.879M214 391.574l-81.38-51.879m163.654 0L214 292.288m82.274 47.407v51.879M132.62 339.695 214 292.288m-81.38 47.407v51.879"/><defs><linearGradient id="a" x1="142.629" x2="287.161" y1="201.445" y2="207.356" gradientUnits="userSpaceOnUse"><stop stop-color="#82DEF5"/><stop offset="1" stop-color="#7584D6"/></linearGradient></defs></svg>