<svg xmlns="http://www.w3.org/2000/svg" width="510" height="590" fill="none"><path stroke="url(#a)" stroke-linecap="round" stroke-linejoin="round" stroke-width="10" d="M352.826 59.348 255 5 155 61.522m197.826-2.174-100 56.522m100-56.522v119.849L307.174 205m-54.348-89.13L155 61.522m97.826 54.348v236.956M155 61.522v173.43l47.826 26.57m50 91.304 54.348 30.193m-54.348-30.193-50 28.261m0-119.565L105 207.174 5 263.696m197.826-2.174-100 56.521m100-56.521v119.565m-100-63.044L5 263.696m97.826 54.347L105 491.957M5 263.696v171.739l100 56.522m247.826-83.696-102.174 55.435m102.174-55.435-45.652-25.242m45.652 25.242v116.304m0-116.304v52.174m-102.174 3.261-97.826-54.348m97.826 54.348v120.652m-97.826-175 50-28.261m-50 28.261v54.348M505 202.826l-97.826-54.348-100 56.522M505 202.826l-100 56.522m100-56.522v232.609l-100 56.521m0-232.608L307.174 205M405 259.348v232.608M307.174 205v178.019M405 491.956l-52.174-31.521m0 0v64.13m0 0-102.174 59.783m0 0-97.826-59.783v-60.869M105 491.957l47.826-28.261"/><defs><linearGradient id="a" x1="169.355" x2="342.796" y1="241.303" y2="248.373" gradientUnits="userSpaceOnUse"><stop stop-color="#82DEF5"/><stop offset="1" stop-color="#7584D6"/></linearGradient></defs></svg>